<svg width="32" height="32" viewBox="0 0 32 32" fill="none" xmlns="http://www.w3.org/2000/svg">
<path d="M16.1186 16L15.9859 28.8513" stroke="black" stroke-width="2" stroke-linecap="round" stroke-linejoin="round"/>
<path d="M27.4859 21.9165V10.0835C27.4859 9.90638 27.4389 9.73246 27.3497 9.57951C27.2604 9.42655 27.1322 9.30004 26.978 9.2129L16.478 3.27812C16.3279 3.19327 16.1584 3.14868 15.9859 3.14868C15.8135 3.14868 15.644 3.19327 15.4939 3.27812L4.99387 9.2129C4.83971 9.30004 4.71145 9.42655 4.6222 9.57951C4.53296 9.73246 4.48593 9.90638 4.48593 10.0835V21.9165C4.48593 22.0936 4.53296 22.2675 4.6222 22.4205C4.71145 22.5734 4.83971 22.7 4.99387 22.7871L15.4939 28.7219C15.644 28.8067 15.8135 28.8513 15.9859 28.8513C16.1584 28.8513 16.3279 28.8067 16.478 28.7219L26.978 22.7871C27.1322 22.7 27.2604 22.5734 27.3497 22.4205C27.4389 22.2675 27.4859 22.0936 27.4859 21.9165V21.9165Z" stroke="black" stroke-width="2" stroke-linecap="round" stroke-linejoin="round"/>
<path d="M27.349 9.5784L16.1186 16L4.62375 9.57703" stroke="black" stroke-width="2" stroke-linecap="round" stroke-linejoin="round"/>
<path d="M22.1277 18.5639V12.5639L10.5304 6.08362" stroke="black" stroke-width="2" stroke-linecap="round" stroke-linejoin="round"/>
</svg>
